<svg width="13" height="12" viewBox="0 0 13 12" fill="none" xmlns="http://www.w3.org/2000/svg">
<path d="M4.17972 9.46875C4.25003 9.39844 4.27347 9.30469 4.22659 9.1875C4.17972 9.07031 4.08597 9 3.96878 9H2.93753V1.03125C2.93753 0.960938 2.89065 0.890625 2.84378 0.84375C2.7969 0.796875 2.72659 0.75 2.65628 0.75H2.09378C2.00003 0.75 1.92972 0.796875 1.88284 0.84375C1.83597 0.890625 1.81253 0.960938 1.81253 1.03125V9H0.781278C0.640653 9 0.570341 9.07031 0.523466 9.1875C0.476591 9.30469 0.476591 9.39844 0.570341 9.46875L2.16409 11.1562C2.21097 11.2266 2.28128 11.25 2.37503 11.25C2.44534 11.25 2.51565 11.2266 2.58597 11.1562L4.17972 9.46875ZM6.03128 3.1875C5.93753 3.1875 5.86722 3.16406 5.82034 3.11719C5.77347 3.07031 5.75003 3 5.75003 2.90625V2.34375C5.75003 2.27344 5.77347 2.20312 5.82034 2.15625C5.86722 2.10938 5.93753 2.0625 6.03128 2.0625H12.2188C12.2891 2.0625 12.3594 2.10938 12.4063 2.15625C12.4532 2.20312 12.5 2.27344 12.5 2.34375V2.90625C12.5 3 12.4532 3.07031 12.4063 3.11719C12.3594 3.16406 12.2891 3.1875 12.2188 3.1875H6.03128ZM5.75003 5.15625C5.75003 5.25 5.77347 5.32031 5.82034 5.36719C5.86722 5.41406 5.93753 5.4375 6.03128 5.4375H10.7188C10.7891 5.4375 10.8594 5.41406 10.9063 5.36719C10.9532 5.32031 11 5.25 11 5.15625V4.59375C11 4.52344 10.9532 4.45312 10.9063 4.40625C10.8594 4.35938 10.7891 4.3125 10.7188 4.3125H6.03128C5.93753 4.3125 5.86722 4.35938 5.82034 4.40625C5.77347 4.45312 5.75003 4.52344 5.75003 4.59375V5.15625ZM5.75003 9.65625C5.75003 9.75 5.77347 9.82031 5.82034 9.86719C5.86722 9.91406 5.93753 9.9375 6.03128 9.9375H7.71878C7.78909 9.9375 7.8594 9.91406 7.90628 9.86719C7.95315 9.82031 8.00003 9.75 8.00003 9.65625V9.09375C8.00003 9.02344 7.95315 8.95312 7.90628 8.90625C7.8594 8.85938 7.78909 8.8125 7.71878 8.8125H6.03128C5.93753 8.8125 5.86722 8.85938 5.82034 8.90625C5.77347 8.95312 5.75003 9.02344 5.75003 9.09375V9.65625ZM5.75003 7.40625C5.75003 7.5 5.77347 7.57031 5.82034 7.61719C5.86722 7.66406 5.93753 7.6875 6.03128 7.6875H9.21878C9.28909 7.6875 9.3594 7.66406 9.40628 7.61719C9.45315 7.57031 9.50003 7.5 9.50003 7.40625V6.84375C9.50003 6.77344 9.45315 6.70312 9.40628 6.65625C9.3594 6.60938 9.28909 6.5625 9.21878 6.5625H6.03128C5.93753 6.5625 5.86722 6.60938 5.82034 6.65625C5.77347 6.70312 5.75003 6.77344 5.75003 6.84375V7.40625Z" fill="#516980"/>
</svg>
