<svg width="12" height="13" viewBox="0 0 12 13" fill="none" xmlns="http://www.w3.org/2000/svg">
<path fill-rule="evenodd" clip-rule="evenodd" d="M11.8947 11.4684L9.05497 8.62866C9.00117 8.57485 8.93099 8.54678 8.85614 8.54678H8.54737C9.28421 7.69298 9.73099 6.58187 9.73099 5.3655C9.73099 2.67778 7.55322 0.5 4.8655 0.5C2.17778 0.5 0 2.67778 0 5.3655C0 8.05322 2.17778 10.231 4.8655 10.231C6.08187 10.231 7.19298 9.78421 8.04678 9.04737V9.35614C8.04678 9.43099 8.07719 9.50117 8.12866 9.55497L10.9684 12.3947C11.0784 12.5047 11.2561 12.5047 11.3661 12.3947L11.8947 11.8661C12.0047 11.7561 12.0047 11.5784 11.8947 11.4684ZM4.8655 9.10819C2.79767 9.10819 1.12281 7.43334 1.12281 5.3655C1.12281 3.29767 2.79767 1.62281 4.8655 1.62281C6.93334 1.62281 8.60819 3.29767 8.60819 5.3655C8.60819 7.43334 6.93334 9.10819 4.8655 9.10819Z" fill="#131D28"/>
</svg>
