<svg xmlns="http://www.w3.org/2000/svg" xml:space="preserve" viewBox="0 0 50 33.5"><path d="M25.3 2.6H50v2.6H25.3zM.1 23.2H50v2.6H.1zM.1 18v2.6H50V18H25.3zM25.3 12.9H50v2.6H25.3zM25.3 7.7H50v2.6H25.3zM.1 28.3H50v2.6H.1z" style="fill:#fff"/><path d="M25.3 0H50v2.6H25.3zM25.3 5.1H50v2.6H25.3zM25.3 10.3H50v2.6H25.3zM25.3 15.4H50V18H25.3zM.1 20.6H50v2.6H.1zM.1 25.7H50v2.6H.1zM.1 30.9H50v2.6H.1z" style="fill:#bf2033"/><path d="M25.3 15.4V0H.1v18h25.2zm-1.6-1.9-.6-.5-.6.4.2-.7-.6-.4h.7l.2-.7.2.7h.7l-.6.4zm-19.6-.2.2.7h.8l-.6.4.2.7-.6-.4-.6.4.2-.7-.5-.4H4zm1.7-.5-.6-.4h.7l.2-.7.2.7h.8l-.6.4.2.7-.6-.5-.6.4zm-.7-7.7h.8l.2-.7.2.7H7l-.5.4.2.7-.6-.4-.6.4.2-.7zm4.2 0h.8l.2-.7.2.7h.7l-.6.4.3.7-.6-.4-.5.4.2-.7zm4.3 0h.7l.2-.7.2.7h.8l-.6.4.2.7-.6-.4-.6.4.2-.7zm4.3 0h.7l.2-.7.2.7h.7l-.6.4.2.7-.6-.4-.6.4.2-.7zm-.1 5.4-.6.4.2.7-.6-.4-.6.4.2-.7-.6-.4h.7l.2-.7.2.7zm-.3 4.7-.6-.4-.6.4.2-.7-.7-.5h.7l.2-.7.3.7h.7l-.6.4zm-4.1-4.7-.6.4.2.7-.6-.4-.5.5.2-.7-.6-.4h.7l.2-.7.2.7h.8zm-.1 4.7-.6-.4-.7.4.2-.7-.6-.5h.7l.2-.7.2.7h.7l-.5.5zM11.6 7h.7l.2-.7.3.7h.7l-.5.5.2.7-.6-.4-.6.4.2-.7zm3.7 3-.6-.4-.6.4.2-.7-.6-.4h.7l.2-.7.2.7h.7l-.6.4zm-4.9-1.9.2.7h.7l-.6.4.2.7-.6-.4-.5.5.2-.7-.6-.5h.7zm9.1 1.9-.6-.4-.6.4.2-.7-.6-.4h.7l.2-.7.2.7h.7l-.6.4zm-2.1-1.8-.6-.4-.6.4.2-.7-.6-.5h.8l.2-.7.2.7h.8l-.6.4zM7.3 7H8l.2-.7.4.7h.7l-.7.5.3.7-.6-.5-.5.5.2-.7zm-1 1.1.2.7h.7l-.7.5.3.7-.5-.5-.8.5.2-.7-.4-.5H6zm2 1.7.2.7h.7l-.6.4.4.8-.6-.4-.6.4.2-.8-.6-.4h.7zm.6 5.4-.6-.4-.6.4.2-.7-.6-.5h.8l.2-.7.3.7h.7l-.6.4zm1.2-2.4-.6-.4h.7l.2-.7.2.7h.7l-.6.4.2.7-.5-.5-.6.4zm4.2 0-.6-.4h.7l.2-.7.2.7h.7l-.5.4.2.7-.6-.5-.6.4zm4.2 0-.6-.4h.7l.2-.7.2.7h.7l-.6.4.2.7-.4-.5-.6.4zm3.2 2.4-.6-.4-.6.4.2-.7-.6-.5h.7l.2-.7.2.7h.7l-.6.4zm.3-4.7-.6.4.2.7-.6-.4-.6.4.2-.7-.6-.4h.7l.3-.7.2.7zm1.7-.5-.6-.4-.6.4.2-.7-.6-.4h.7l.2-.7.2.7h.7l-.6.4zm-2.1-1.8-.6-.5-.6.4.2-.7L20 7h.8l.2-.7.3.7h.7l-.6.4zm2.1-2-.6-.4-.6.4.2-.7-.6-.4h.7l.2-.7.2.7h.7l-.6.4zM23.1.7l.2.7h.7l-.6.4.2.7-.6-.4-.6.4.2-.7-.6-.4h.7zm-1.9 2.6h.8l-.6.4.2.7L21 4l-.6.4.2-.7-.6-.4h.8l.2-.8zM18.9.7l.2.7h.7l-.6.4.2.7-.6-.4-.6.4.2-.7-.6-.4h.7zM17 3.3h.7l-.6.4.2.7-.5-.4-.6.4.2-.7-.6-.4h.7l.2-.7zM14.6.7l.2.7h.8l-.6.5.2.7-.6-.4-.6.4.2-.7-.6-.4h.7zm-1.8 2.6h.7l-.6.4.1.7-.6-.4-.6.4.2-.7-.6-.4h.7l.2-.7zM10.3.7l.2.7h.7l-.6.4.3.8-.6-.4-.5.4.2-.7-.7-.5h.8zM8.4 3.3h.7l-.5.4.2.7-.5-.4-.7.4.2-.7-.5-.4H8l.2-.7zM6.1.7l.2.7H7l-.5.5.2.7-.6-.4-.6.4.2-.7-.6-.5h.8zM4.3 3.3H5l-.6.4.2.7L4 4l-.5.4.2-.7-.7-.4h.8l.2-.7zM.9 1.4h.7L2 .7l.2.7H3l-.6.5.2.7-.6-.4-.6.4.2-.7zm0 3.7h.7l.4-.7.2.7H3l-.6.4.2.7-.6-.4-.6.4.2-.7zM3.2 7h.7l.1-.7.3.7H5l-.6.5.2.7-.6-.5-.5.5.2-.7zm-.7 3L2 9.5l-.6.5.2-.7-.5-.5h.7l.2-.7.2.7H3l-.6.5zM4 9.8l.2.7h.7l-.6.4.2.7-.6-.4-.6.4.2-.7-.6-.4h.8zM.9 12.3h.7l.4-.7.2.7H3l-.6.4.2.7L2 13l-.6.4.2-.7zM2.7 17l-.7-.4-.5.4.2-.7-.6-.4h.7l.2-.7.2.7h.7l-.6.4zm4.1 0-.6-.4-.6.4.2-.7-.6-.4h.7l.2-.7.2.7H7l-.6.4zm4.3 0-.6-.4-.7.4.2-.7-.6-.4h.7l.2-.7.2.7h.7l-.6.4zm4.2 0-.6-.4-.6.4.2-.7-.6-.4h.8l.2-.7.2.7h.7l-.6.4zm4.3 0-.6-.5-.6.5.2-.7-.6-.5h.7l.2-.7.2.7h.9l-.6.4zm4.2 0-.6-.4-.6.4.2-.7-.6-.4h.8l.2-.7.2.7h.7l-.6.4z" style="fill:#213065!important"/><path d="m1.4 2.6.6-.4.5.4-.1-.7.6-.5h-.8L2 .7l-.2.7H.9l.7.5zM5.5 2.6l.6-.4.7.4-.3-.7.6-.5h-.8L6.1.7l-.2.7h-.8l.7.5zM9.8 2.6l.5-.4.6.4-.1-.7.5-.5h-.7l-.3-.7-.2.7h-.8l.8.5zM13.9 2.6l.7-.4.7.4-.4-.7.7-.5h-.8l-.2-.7-.3.7h-.7l.7.5zM18.3 2.6l.6-.4.6.4-.3-.7.6-.5h-.7l-.2-.7-.3.7h-.7l.6.5zM22.5 2.6l.6-.4.6.4-.2-.7.6-.5h-.8l-.2-.7-.2.7h-.8l.6.5zM3.5 4.4 4 4l.6.4-.2-.7.6-.4h-.7L4 2.5l-.1.8H3l.7.4zM7.6 4.4l.7-.4.5.4-.2-.7.7-.4h-.9l-.1-.8-.2.8h-.8l.5.4zM11.8 4.4l.6-.4.7.4-.3-.7.6-.4h-.6l-.4-.8-.1.8h-.7l.5.4zM16.1 4.4l.7-.4.6.4-.3-.7.6-.4H17l-.2-.8-.3.8h-.7l.6.4zM20.4 4.4 21 4l.6.4-.2-.7.6-.4h-.8l-.2-.8-.3.8H20l.6.4zM1.4 6.2l.6-.4.5.4-.1-.7.6-.4h-.8L2 4.4l-.2.7H.9l.7.4zM5.5 6.2l.6-.4.7.4-.3-.7.6-.4h-.8l-.2-.7-.2.7h-.8l.7.4zM9.8 6.2l.5-.4.6.4-.1-.7.5-.4h-.7l-.3-.7-.2.7h-.8l.8.4zM13.9 6.2l.7-.4.7.4-.4-.7.7-.4h-.8l-.2-.7-.3.7h-.7l.7.4zM18.3 6.2l.6-.4.6.4-.3-.7.6-.4h-.7l-.2-.7-.3.7h-.7l.6.4zM22.5 6.2l.6-.4.6.4-.2-.7.6-.4h-.8l-.2-.7-.2.7h-.8l.6.4zM4.3 7 4 6.3l-.1.7h-.7l.6.5-.3.7.5-.5.8.5-.4-.7L5 7zM8.6 7l-.3-.7-.2.7h-.8l.6.5-.1.7.5-.5.6.5-.3-.7.7-.5zM12.8 7l-.2-.7-.3.7h-.7l.5.5-.2.7.7-.5.5.5-.2-.7.7-.5zM17 7l-.2-.7-.2.7h-.8l.6.5-.2.7.6-.5.6.5-.2-.7.6-.5zM21.3 7l-.3-.7-.2.7H20l.7.5-.3.7.6-.5.6.5-.2-.7.6-.5zM2.3 8.8 2 8.1l-.2.7h-.7l.6.5-.3.7.6-.5.5.5-.1-.7.6-.5zM6.4 8.8l-.1-.7-.4.7h-.6l.5.5-.3.7.8-.5.5.5-.3-.7.6-.5zM10.6 8.8l-.2-.7-.3.7h-.7l.7.5-.3.7.6-.5.7.5-.3-.7.6-.5zM14.8 8.8l-.2-.7-.2.7h-.8l.7.5-.2.7.5-.5.7.5-.2-.7.5-.5zM19.1 8.8l-.2-.7-.2.7h-.8l.6.5-.2.7.6-.5.6.5-.2-.7.6-.5zM23.4 8.8l-.3-.7-.2.7h-.7l.6.5-.3.7.6-.5.6.5-.2-.7.6-.5zM3.5 11.7l.5-.5.6.5-.2-.8.6-.4h-.7L4 9.8l-.1.7H3l.7.4zM7.6 11.7l.7-.5.6.5-.3-.8.7-.4h-.7l-.3-.7-.2.7h-.8l.6.4zM11.9 11.7l.7-.5.5.5-.3-.8.6-.4h-.6l-.2-.7-.3.7h-.7l.5.4zM16.2 11.7l.6-.5.6.5-.2-.8.6-.4H17l-.2-.7-.2.7h-.8l.6.4zM20.4 11.7l.6-.5.6.5-.2-.8.6-.4h-.8l-.2-.7-.2.7H20l.6.4zM1.4 13.5 2 13l.5.5-.1-.7.6-.5h-.8l-.2-.7-.2.7H.9l.7.5zM5.5 13.5l.6-.5.7.5-.3-.7.6-.5h-.7l-.3-.7-.2.7h-.6l.5.5zM9.8 13.5l.6-.5.7.5-.3-.7.5-.5h-.7l-.2-.7-.3.7h-.7l.7.5zM14.1 13.5l.5-.5.7.5-.4-.7.7-.5h-.8l-.2-.7-.3.7h-.7l.7.5zM18.3 13.5l.6-.5.6.5-.2-.7.6-.5h-.8l-.2-.7-.2.7h-.8l.6.5zM22.5 13.5l.6-.5.6.5-.2-.7.6-.5h-.8l-.2-.7-.2.7h-.8l.6.5zM4.3 14l-.2-.7-.1.7h-.8l.6.5-.3.7.6-.5.7.5-.3-.7.6-.5zM8.6 14l-.3-.7-.2.7h-.8l.8.5-.3.7.5-.5.6.5-.1-.7.5-.5zM12.8 14l-.2-.7-.3.7h-.7l.7.5-.4.7.7-.5.7.5-.4-.7.7-.5zM17.1 14l-.2-.7-.3.7h-.8l.7.5-.2.7.6-.5.6.5-.3-.7.6-.5zM21.3 14l-.2-.7-.2.7h-.8l.6.5-.2.7.6-.5.6.5-.2-.7.6-.5zM2.3 15.8l-.3-.7-.1.7h-.8l.6.5-.2.7.5-.5.7.5-.2-.7.5-.5zM6.4 15.8l-.1-.7-.3.7h-.7l.5.5-.2.7.7-.5.5.5-.2-.7.7-.5zM10.8 15.8l-.4-.7-.1.7h-.7l.5.5-.3.7.6-.5.7.5-.3-.7.6-.5zM14.9 15.8l-.1-.7-.4.7h-.6l.5.5-.2.7.7-.5.5.5-.2-.7.5-.5zM19.2 15.8l-.2-.7-.3.7H18l.6.5-.2.7.6-.5.6.5-.2-.7.6-.5zM24.2 15.8h-.8l-.2-.7-.2.7h-.8l.6.5-.2.7.6-.5.6.5-.2-.7z" style="fill:#fff"/></svg>