<svg xmlns="http://www.w3.org/2000/svg" xml:space="preserve" viewBox="0 0 221.4 32.1"><path d="M20.5 32H7.9c-.8 0-1.5-.5-1.9-1.2l-.2-.4L.2 13.8c-.6-1.4.5-2.9 2-2.9H9c1.8 0 3.5 1.1 4.1 2.8l7 16.9c.3.8 1 1.5 1.8 1.4z" style="fill:#fff"/><path d="M20.1 30.6c.3.8 1 1.4 1.8 1.4H9.5l5.3-14z" style="fill:#fff"/><path d="M21.8 32c-.8 0-1.4-.7-1.7-1.4L14.9 18 9.6 32h12.2m-5.2-18.3 4.1-10.6C21.4 1.4 23 .3 24.8.3H32c1.5 0 2.5 1.5 2 2.9l-9.7 27.3v.1c-.2.5-.7 1-1.2 1.2-.1 0-.1 0-.2.1-1.8-.5-1.9-2.6-1.9-2.6zM22.5 32h-.2zM47.4 32.1c-4 0-6.7-2.6-6.7-6.3 0-3.6 2.5-6.3 6.5-7.1l7.2-1.3v-.1c-.3-2.1-2.2-3.1-4-3.1-2.8 0-4.6 1.9-5 2.4l-3.5-3.5c.5-.6 3.6-4.2 9-4.2 5.5 0 9.5 3.7 9.5 8.8v13.8h-5.9v-2.7h-.4v.1c-.2.1-2.5 3.2-6.7 3.2m1.8-9.6c-1.6.3-2.6 1.2-2.6 2.4 0 1.5 1.1 2.4 2.9 2.4 2.9 0 4.9-2.2 4.9-5.2v-.6zM74.2 32.1c-6.5 0-11.8-5.2-11.8-11.5C62.4 14.2 67.7 9 74.2 9c2.5 0 4.7.7 6.7 2l-2.5 4.9c-.9-.7-2.4-1.4-4.2-1.4-3.3 0-5.9 2.6-5.9 6.1s2.5 6.1 5.9 6.1c1.8 0 3.3-.8 4.2-1.4l2.5 4.9c-2 1.2-4.3 1.9-6.7 1.9M93.1 32.1c-6.5 0-11.8-5.2-11.8-11.5C81.3 14.2 86.6 9 93.1 9c2.5 0 4.7.7 6.7 2l-2.5 4.9c-.9-.7-2.4-1.4-4.2-1.4-3.3 0-5.9 2.6-5.9 6.1s2.5 6.1 5.9 6.1c1.8 0 3.3-.8 4.2-1.4l2.5 4.9c-2 1.2-4.2 1.9-6.7 1.9M112.3 32.1c-6.5 0-11.8-5.2-11.8-11.5 0-3.1 1.2-6 3.4-8.1C106.1 10.2 109 9 112 9c6.1 0 11.1 5 11.1 11.1 0 1.3-.2 2.3-.2 2.6h-16.3l.1.2c.8 2.5 3.1 4 6.1 4 2.1 0 3.6-.7 4.6-1.3l4.2 3.2c-.9.6-4.2 3.3-9.3 3.3m-.5-17.9c-2.8 0-4.6 2.1-5.2 4l-.1.2H117l-.1-.2c-.6-1.9-2.3-4-5.1-4M210.6 32.1c-6.5 0-11.8-5.2-11.8-11.5 0-3.1 1.2-6 3.4-8.1 2.2-2.2 5.1-3.4 8.1-3.4 6.1 0 11.1 5 11.1 11.1 0 1.3-.2 2.3-.2 2.6h-16.3l.1.2c.8 2.5 3.1 4 6.1 4 2.1 0 3.6-.7 4.6-1.3l4.2 3.2c-.9.5-4.1 3.2-9.3 3.2m-.5-17.9c-2.8 0-4.6 2.1-5.2 4l-.1.2h10.5l-.1-.2c-.5-1.9-2.2-4-5.1-4M164.6 32V9h5.9v23zM175.2 32.1c-.5 0-1-.4-1-1V1.3c0-.5.4-1 1-1h9.6c3 0 5.6.9 7.5 2.5 1.7 1.5 2.7 3.6 2.7 5.8 0 4.9-4.2 6.5-4.3 6.5l-.4.1.4.1c.1 0 5.9 1.6 5.9 7.7 0 5.3-4.5 9-10.9 9zm5.2-5.7h5.1c2.7 0 4.5-1.6 4.5-4s-1.8-4-4.5-4h-5.1zm0-13.7h4.2c2.3 0 3.8-1.3 3.8-3.3S186.8 6 184.5 6h-4.2v6.7zM133.9 32.1c-2.3 0-4.2-.5-5.8-1.5-1.4-.9-2.2-2.1-2.7-3l4.9-2.2c.6 1.3 1.8 2 3.5 2s2.7-.8 2.7-2c0-1.1-.7-1.8-2.2-2.1l-2.8-.7c-4-.9-6.1-3.1-6.1-6.4 0-4 3.6-7.2 8.2-7.2 2.4 0 4.3.6 5.9 1.7 1.4 1 2.1 2.3 2.4 3.2L137 16c-.2-.7-.9-2.3-3.3-2.3-1.4 0-2.6.9-2.6 2 0 1.3 1.2 1.8 1.8 2l3.1.7c4.2.9 6.5 3.3 6.5 6.6-.1 3.3-2.8 7.1-8.6 7.1M152.6 32.1c-2.3 0-4.2-.5-5.8-1.5-1.4-.9-2.2-2.1-2.7-3l4.9-2.2c.6 1.3 1.8 2 3.5 2s2.7-.8 2.7-2c0-1.1-.7-1.8-2.2-2.1l-2.8-.7c-4-.9-6.1-3.1-6.1-6.4 0-4 3.6-7.2 8.2-7.2 2.4 0 4.3.6 5.9 1.7 1.4 1 2.1 2.3 2.4 3.2l-4.9 2.1c-.2-.7-.9-2.3-3.3-2.3-1.4 0-2.6.9-2.6 2 0 1.3 1.2 1.8 1.8 2l3.1.7c4.2.9 6.5 3.3 6.5 6.6-.1 3.3-2.7 7.1-8.6 7.1M164.3 3.6c0 1.8 1.6 3.3 3.4 3.3 1.9 0 3.4-1.5 3.4-3.3S169.5.3 167.7.3c-1.9 0-3.4 1.5-3.4 3.3" style="fill:#fff"/></svg>